Coordinates
version=1
nRows=19
nColumns=27
inDegrees=yes

Units are S.I. units (second, meters, Newtons, ...)
If the header above contains a line with 'inDegrees', this indicates whether rotational values are in degrees (yes) or radians (no).

endheader
time	pelvis_rotation	pelvis_tilt	pelvis_list	pelvis_tx	pelvis_ty	pelvis_tz	hip_flexion_r	hip_adduction_r	hip_rotation_r	knee_angle_r	knee_rotation_r	knee_adduction_r	knee_angle_r_beta	ankle_angle_r	subtalar_angle_r	mtp_angle_r	hip_flexion_l	hip_adduction_l	hip_rotation_l	knee_angle_l	knee_rotation_l	knee_adduction_l	knee_angle_l_beta	ankle_angle_l	subtalar_angle_l	mtp_angle_l
      5.38000000	      7.45560039	    -34.73904955	      5.68061241	     -0.04584583	      0.62429307	     -1.14732985	    104.31510789	    -42.16995308	      7.64223514	     82.88498423	      0.00000000	      9.78703799	      1.44661588	      9.57810639	      0.00000000	      0.00000000	     99.81228837	    -27.52050399	      3.11963484	     76.03809835	      0.00000000	     -9.87355546	      1.32711517	      5.62226698	      0.00000000	      0.00000000
      5.38500000	      7.60642729	    -34.69425329	      5.48537027	     -0.04546376	      0.62664647	     -1.14753680	    103.53195216	    -42.44425605	      6.87806515	     82.42385859	      0.00000000	      9.78888325	      1.43856771	      9.51762786	      0.00000000	      0.00000000	     99.56731923	    -27.27769550	      3.22829229	     75.66017943	      0.00000000	     -9.87236943	      1.32051924	      5.54976860	      0.00000000	      0.00000000
      5.39000000	      7.18637004	    -34.58936278	      5.55623491	     -0.04536239	      0.62884699	     -1.14764934	    103.20664367	    -41.92232141	      6.97851441	     82.00138660	      0.00000000	      9.60339318	      1.43119419	      9.32691329	      0.00000000	      0.00000000	     98.88671368	    -27.68298041	      2.69230826	     75.24971549	      0.00000000	     -9.76001306	      1.31335530	      5.47937858	      0.00000000	      0.00000000
      5.39500000	      7.47949916	    -34.55204548	      5.63619359	     -0.04477908	      0.63088135	     -1.14801603	    102.77083096	    -42.34749674	      6.54016087	     81.66254167	      0.00000000	      9.78774662	      1.42528023	      9.28722492	      0.00000000	      0.00000000	     98.55876541	    -27.38978498	      2.50913543	     74.92099644	      0.00000000	     -9.87134133	      1.30761807	      5.45283318	      0.00000000	      0.00000000
      5.40000000	      7.17994631	    -34.44343518	      5.57477223	     -0.04455509	      0.63306450	     -1.14815151	    102.24391791	    -42.00816180	      6.35903451	     81.21900909	      0.00000000	      9.60310845	      1.41753912	      9.14617734	      0.00000000	      0.00000000	     98.00444028	    -27.63336110	      2.21495044	     74.53088192	      0.00000000	     -9.75797825	      1.30080928	      5.37572982	      0.00000000	      0.00000000
      5.40500000	      7.56813855	    -34.40717096	      5.49307983	     -0.04384815	      0.63504579	     -1.14852280	    101.58343863	    -42.59183005	      5.59263552	     80.86048481	      0.00000000	      9.78915840	      1.41128169	      9.11369789	      0.00000000	      0.00000000	     97.83537730	    -27.22138982	      2.30627922	     74.23512810	      0.00000000	     -9.87019526	      1.29564741	      5.34287823	      0.00000000	      0.00000000
      5.41000000	      7.41459895	    -34.30761993	      5.65157167	     -0.04342141	      0.63698563	     -1.14876503	    101.32723920	    -42.42252726	      5.64491517	     80.52410697	      0.00000000	      9.78754137	      1.40541079	      8.99987915	      0.00000000	      0.00000000	     97.22667104	    -27.39726868	      1.78240101	     73.88126089	      0.00000000	     -9.87027882	      1.28947126	      5.30450614	      0.00000000	      0.00000000
      5.41500000	      7.15400558	    -34.15820482	      5.60818543	     -0.04309603	      0.63900469	     -1.14892481	    100.79898765	    -42.13002031	      5.49543860	     80.11342539	      0.00000000	      9.60594895	      1.39824305	      8.85442812	      0.00000000	      0.00000000	     96.65545062	    -27.61305087	      1.47748892	     73.52132037	      0.00000000	     -9.75655086	      1.28318911	      5.23913189	      0.00000000	      0.00000000
      5.42000000	      7.11558022	    -34.22072348	      5.14553122	     -0.04239213	      0.64105510	     -1.14915971	     99.90940028	    -42.26892507	      4.42266955	     79.65989126	      0.00000000	      9.78731506	      1.39032738	      8.83621201	      0.00000000	      0.00000000	     96.69969836	    -27.61436984	      1.78052761	     73.28927940	      0.00000000	     -9.87038181	      1.27913923	      5.18967645	      0.00000000	      0.00000000
      5.42500000	      7.47054090	    -34.03758513	      5.69387477	     -0.04179550	      0.64278048	     -1.14956141	     99.88088404	    -42.62590705	      4.75078635	     79.43622624	      0.00000000	      9.79038492	      1.38642369	      8.72561335	      0.00000000	      0.00000000	     95.92630765	    -27.28743738	      1.11409046	     72.88610806	      0.00000000	     -9.86938408	      1.27210256	      5.17546639	      0.00000000	      0.00000000
      5.43000000	      7.14853329	    -34.00985015	      5.24638342	     -0.04137606	      0.64483954	     -1.14965000	     99.00694928	    -42.32036549	      4.01954380	     78.93896393	      0.00000000	      9.61012975	      1.37774483	      8.62421292	      0.00000000	      0.00000000	     95.73916871	    -27.51389788	      1.30391672	     72.58978392	      0.00000000	     -9.75472750	      1.26693073	      5.10114115	      0.00000000	      0.00000000
      5.43500000	      7.62923239	    -33.80155934	      5.63591306	     -0.04057215	      0.64643510	     -1.15012202	     98.73042158	    -42.92297768	      3.95151206	     78.72334602	      0.00000000	      9.79406907	      1.37398159	      8.56575209	      0.00000000	      0.00000000	     95.14604941	    -27.06924003	      0.89119704	     72.27114363	      0.00000000	     -9.86869892	      1.26136941	      5.02732935	      0.00000000	      0.00000000
      5.44000000	      7.42751023	    -33.78630716	      5.71239602	     -0.04001143	      0.64826555	     -1.15036022	     98.49667265	    -42.69869643	      3.95507766	     78.38655041	      0.00000000	      9.79362434	      1.36810339	      8.44888629	      0.00000000	      0.00000000	     94.66430659	    -27.27514645	      0.44813338	     71.95065107	      0.00000000	     -9.86968559	      1.25577576	      5.07950329	      0.00000000	      0.00000000
      5.44500000	      7.56170876	    -33.65804391	      5.65295400	     -0.03927226	      0.65008769	     -1.15065834	     97.84526088	    -42.92423396	      3.44666474	     78.03042506	      0.00000000	      9.79499628	      1.36188783	      8.38699881	      0.00000000	      0.00000000	     94.29869154	    -27.10160344	      0.41636927	     71.65335093	      0.00000000	     -9.86850833	      1.25058689	      5.03651319	      0.00000000	      0.00000000
      5.45000000	      7.46930560	    -33.54840209	      5.75669525	     -0.03861088	      0.65183012	     -1.15092348	     97.51555329	    -42.84322364	      3.40909539	     77.71261609	      0.00000000	      9.79503705	      1.35634102	      8.29228436	      0.00000000	      0.00000000	     93.75696584	    -27.19457042	      0.01212124	     71.33996415	      0.00000000	     -9.86889479	      1.24511726	      5.00831298	      0.00000000	      0.00000000
      5.45500000	      7.11652619	    -33.48669576	      5.40542865	     -0.03816187	      0.65372894	     -1.15102213	     96.76102300	    -42.46192048	      2.90117037	     77.25766155	      0.00000000	      9.61628016	      1.34840057	      8.19046495	      0.00000000	      0.00000000	     93.47510097	    -27.46165729	      0.07765201	     71.05981757	      0.00000000	     -9.75395438	      1.24022778	      4.93307250	      0.00000000	      0.00000000
      5.46000000	      7.59712431	    -33.33572075	      5.62134185	     -0.03710854	      0.65535448	     -1.15148653	     96.30346679	    -43.10117139	      2.51188745	     77.01174177	      0.00000000	      9.79769938	      1.34410846	      8.15213981	      0.00000000	      0.00000000	     93.04643810	    -26.99979821	     -0.10640388	     70.76978331	      0.00000000	     -9.86810656	      1.23516573	      4.94566228	      0.00000000	      0.00000000
      5.46500000	      7.53718135	    -33.25831209	      5.73626739	     -0.03638900	      0.65706100	     -1.15177587	     96.00939596	    -43.05487796	      2.47401036	     76.70180783	      0.00000000	      9.79769266	      1.33869909	      8.04951949	      0.00000000	      0.00000000	     92.54733159	    -27.04405415	     -0.47760142	     70.46494810	      0.00000000	     -9.86814611	      1.22984535	      4.92814711	      0.00000000	      0.00000000
      5.47000000	      7.45338278	    -33.15254985	      5.79250258	     -0.03561618	      0.65878303	     -1.15205852	     95.61939974	    -42.99772977	      2.35303772	     76.37812136	      0.00000000	      9.79782010	      1.33304969	      7.97050290	      0.00000000	      0.00000000	     92.04315353	    -27.10488704	     -0.79886973	     70.16591928	      0.00000000	     -9.86837582	      1.22462631	      4.91886055	      0.00000000	      0.00000000
